<svg width="154" height="23" fill="none" xmlns="http://www.w3.org/2000/svg"><path d="M81.89 9c0 2.308-1.284 4.444-2.632 6.041a18.24 18.24 0 01-2.368 2.325 18.24 18.24 0 01-2.368-2.324C73.173 13.443 71.89 11.307 71.89 9s1.283-4.444 2.632-6.041A18.239 18.239 0 0176.89.634a18.239 18.239 0 012.368 2.324C80.606 4.557 81.89 6.693 81.89 9z" stroke="#fff"/><path d="M74.77 8.757c1.675 1.675 2.328 4.114 2.548 6.201a18.306 18.306 0 01.04 3.301 18.292 18.292 0 01-3.301-.04c-2.088-.218-4.527-.872-6.202-2.547-1.675-1.675-2.329-4.115-2.548-6.201a18.277 18.277 0 01-.04-3.302 18.292 18.292 0 013.301.04c2.087.22 4.527.873 6.202 2.548zm5.766 0c-1.675 1.675-2.328 4.114-2.547 6.201a18.277 18.277 0 00-.04 3.301 18.292 18.292 0 003.301-.04c2.087-.218 4.526-.872 6.201-2.547 1.675-1.675 2.329-4.115 2.548-6.201a18.277 18.277 0 00.04-3.302 18.293 18.293 0 00-3.301.04c-2.087.22-4.527.873-6.202 2.548zM52.5 12H.5M154 12h-52" stroke="#fff"/></svg>